<svg width="32" height="32" viewBox="0 0 32 32" fill="none" xmlns="http://www.w3.org/2000/svg">
<path d="M20.5738 13V7.0625C20.5738 5.73642 20.0577 4.46465 19.1391 3.52697C18.2204 2.58928 16.9745 2.0625 15.6753 2.0625C14.3762 2.0625 13.1302 2.58928 12.2116 3.52697C11.2929 4.46465 10.7769 5.73642 10.7769 7.0625V13" stroke="black" stroke-width="2.8125" stroke-linecap="round" stroke-linejoin="round"/>
<path d="M22.5328 13H8.81702C7.1938 13 5.87793 14.3431 5.87793 16V27C5.87793 28.6569 7.1938 30 8.81702 30H22.5328C24.156 30 25.4718 28.6569 25.4718 27V16C25.4718 14.3431 24.156 13 22.5328 13Z" stroke="black" stroke-width="2.8125" stroke-linecap="round" stroke-linejoin="round"/>
</svg>
