<svg width="32" height="32" viewBox="0 0 32 32" fill="none" xmlns="http://www.w3.org/2000/svg">
<path d="M16.1815 3C8.87023 2.90125 2.90148 8.87 3.00023 16.1813C3.09773 23.1931 8.80711 28.9025 15.819 29C23.1315 29.1 29.099 23.1313 28.999 15.82C28.9027 8.80688 23.1934 3.0975 16.1815 3ZM24.0827 23.4531C24.0578 23.4801 24.0273 23.5012 23.9934 23.515C23.9594 23.5288 23.9228 23.535 23.8862 23.5331C23.8496 23.5311 23.8138 23.5212 23.7814 23.5039C23.7491 23.4867 23.7209 23.4625 23.699 23.4331C23.14 22.7017 22.4553 22.0755 21.6771 21.5838C20.0859 20.5625 18.0696 20 16.0002 20C13.9309 20 11.9146 20.5625 10.3234 21.5838C9.54515 22.0753 8.86054 22.7013 8.30148 23.4325C8.27952 23.4619 8.25136 23.486 8.21902 23.5033C8.18667 23.5206 8.15091 23.5305 8.11429 23.5324C8.07767 23.5343 8.04108 23.5282 8.00711 23.5144C7.97314 23.5005 7.94263 23.4794 7.91773 23.4525C6.08378 21.4727 5.04492 18.8858 5.00023 16.1875C4.89836 10.1056 9.88898 5.015 15.9734 5C22.0577 4.985 27.0002 9.92563 27.0002 16C27.0023 18.7634 25.9602 21.4255 24.0827 23.4531Z" fill="black"/>
<path d="M15.9998 9C14.7673 9 13.6529 9.46188 12.861 10.3013C12.0692 11.1406 11.6735 12.3012 11.7629 13.5469C11.9442 16 13.8448 18 15.9998 18C18.1548 18 20.0517 16 20.2367 13.5475C20.3292 12.3137 19.9367 11.1638 19.1317 10.3088C18.3367 9.465 17.2242 9 15.9998 9Z" fill="black"/>
</svg>
